<svg width="140" height="42" viewBox="0 0 140 42" fill="none" xmlns="http://www.w3.org/2000/svg">
<path d="M34.2672 5.29237L29.5287 7.68635C28.6791 8.11547 28.1424 8.99277 28.1424 9.95242V36.5579C28.1424 37.0249 28.6291 37.3287 29.0425 37.1198L31.016 36.123C33.5645 34.8353 35.1744 32.2035 35.1744 29.3243V5.85889C35.1744 5.38801 34.684 5.08177 34.2672 5.29237Z" fill="#FF8303"/>
<path d="M24.9056 16.5801L20.1508 18.9873C19.3023 19.4168 18.7665 20.2936 18.7665 21.2526V30.7026C18.7665 31.1738 19.2574 31.48 19.6743 31.269L24.4291 28.8618C25.2777 28.4323 25.8134 27.5556 25.8134 26.5966V17.1465C25.8133 16.6754 25.3225 16.3691 24.9056 16.5801Z" fill="#FF8303"/>
<path d="M1.39271 24.1373L6.14987 26.5406C6.5669 26.7512 7.0571 26.445 7.0571 25.9741V4.73715C7.0571 3.77749 6.52059 2.9002 5.67102 2.471L0.913854 0.0676904C0.496828 -0.142907 0.00637817 0.163417 0.00637817 0.634208V21.871C0.00645985 22.8308 0.543219 23.7081 1.39271 24.1373Z" fill="#FF8303"/>
<path d="M10.7748 28.8768L15.5296 31.2841C15.9465 31.4951 16.4374 31.1889 16.4374 30.7177V18.6479C16.4374 17.6874 15.9 16.8095 15.0493 16.3807L10.2972 13.9852C9.88063 13.775 9.3905 14.0813 9.3905 14.552V26.6117C9.3905 27.5706 9.92636 28.4474 10.7748 28.8768Z" fill="#FF8303"/>
<path d="M24.9062 31.2576L18.1553 34.6681C17.8022 34.8464 17.387 34.8464 17.0339 34.6681L0.907068 26.5208C0.490451 26.3103 0 26.6165 0 27.0874V29.3207C0 32.2016 1.61183 34.8348 4.16299 36.1215L14.232 41.1998C16.3489 42.2675 18.8398 42.2667 20.9562 41.1975L24.4272 39.4438C25.2766 39.0147 25.8133 38.1373 25.8133 37.1778V31.824C25.8133 31.3532 25.3228 31.047 24.9062 31.2576Z" fill="#FF8303"/>
<path d="M61.5221 29.6462L57.8641 24.3333C58.1117 24.2473 58.3601 24.1623 58.5943 24.0584C58.6225 24.0441 58.6366 24.0441 58.665 24.0298C59.0044 23.8726 59.3156 23.7011 59.6126 23.5154C59.9097 23.3295 60.1925 23.1151 60.4612 22.9008C60.8149 22.6007 61.1403 22.2577 61.4372 21.8861C61.5504 21.7289 61.6635 21.5717 61.7767 21.4001C61.9605 21.1144 62.1162 20.8142 62.2576 20.4999C62.3142 20.3713 62.3708 20.2426 62.4131 20.114C62.5405 19.7995 62.6253 19.4566 62.6961 19.1136C62.7951 18.5848 62.8517 18.0417 62.8517 17.4558C62.8517 15.898 62.484 14.5546 61.7484 13.4114C61.0271 12.2824 59.9804 11.4105 58.6366 10.7817C57.3496 10.1958 55.8503 9.8814 54.1247 9.85284H44.8886V32.1472H49.6834V24.9588H53.177L56.3878 29.6463L57.1657 30.7897L58.0991 32.1472H63.2477L62.3142 30.7897L61.5221 29.6462ZM49.6834 21.1002V13.8115H53.5873C55.03 13.8115 56.1191 14.126 56.8687 14.7406C57.6184 15.3693 58.0002 16.284 58.0002 17.4559C58.0002 17.8846 57.9437 18.2848 57.8447 18.642C57.774 18.8565 57.6891 19.0565 57.5901 19.2423C57.4062 19.5853 57.1658 19.8854 56.8687 20.1427C56.1191 20.7857 55.03 21.1003 53.5873 21.1003H49.6834V21.1002Z" fill="white"/>
<path d="M84.5155 11.1604C82.7192 10.1744 80.6965 9.67419 78.4476 9.67419C76.1988 9.67419 74.1619 10.1744 72.3656 11.1604C70.5551 12.1322 69.1407 13.4756 68.1223 15.2049C67.0898 16.9199 66.5947 18.8491 66.5947 21.0072C66.5947 23.1509 67.0898 25.0944 68.1223 26.8094C69.1407 28.5244 70.5551 29.8679 72.3656 30.8683C74.1619 31.84 76.1988 32.3259 78.4476 32.3259C80.6965 32.3259 82.7192 31.84 84.5155 30.8683C86.2976 29.8679 87.7263 28.5245 88.7588 26.8094C89.7772 25.0945 90.3004 23.1509 90.3004 21.0072C90.3004 18.8491 89.7772 16.9199 88.7588 15.2049C87.7263 13.4756 86.2976 12.1322 84.5155 11.1604ZM84.5438 24.7515C83.9497 25.8519 83.1011 26.7237 82.0261 27.3382C80.9653 27.9384 79.763 28.2528 78.4476 28.2528C77.1181 28.2528 75.9158 27.9384 74.8692 27.3382C73.7942 26.7238 72.9455 25.8519 72.3373 24.7515C71.7433 23.651 71.4322 22.4077 71.4322 21.0072C71.4322 19.6066 71.7433 18.349 72.3373 17.2485C72.9455 16.1481 73.7942 15.2907 74.8692 14.6761C75.9158 14.0616 77.1181 13.7472 78.4476 13.7472C79.763 13.7472 80.9653 14.0616 82.0261 14.6761C83.1011 15.2907 83.9497 16.1481 84.5438 17.2485C85.1519 18.349 85.4632 19.6066 85.4632 21.0072C85.4632 22.4077 85.152 23.651 84.5438 24.7515Z" fill="white"/>
<path d="M105.586 19.1851L114.157 9.85291H108.839L99.659 19.6424V9.85291H94.8924V32.1473H99.659V25.5018L102.134 22.8998L109.606 32.1473H115.15L105.273 19.5223L105.586 19.1851Z" fill="white"/>
<path d="M140 32.1472L130.122 19.5224L130.435 19.185L139.007 9.85284H133.688L124.509 19.6423V9.85284H119.742V32.1472H124.509V25.5019L126.983 22.8998L134.456 32.1472H140Z" fill="white"/>
</svg>
